<mxfile host="app.diagrams.net" modified="2021-08-21T06:24:41.534Z" agent="5.0 (Windows NT 10.0; Win64; x64) AppleWebKit/537.36 (KHTML, like Gecko) Chrome/92.0.4515.131 Safari/537.36" etag="JyIth_igQ14Jr-P40Ha7" version="14.9.6" type="github">
  <diagram id="sdYTl0LgnBd3mYm8gjIQ" name="Page-1">
    <mxGraphModel dx="1822" dy="762" grid="1" gridSize="10" guides="1" tooltips="1" connect="1" arrows="1" fold="1" page="0" pageScale="1" pageWidth="850" pageHeight="1100" math="0" shadow="0">
      <root>
        <mxCell id="0" />
        <mxCell id="1" parent="0" />
        <mxCell id="0xATD7XNpNfVmDACj2di-79" style="edgeStyle=orthogonalEdgeStyle;rounded=0;orthogonalLoop=1;jettySize=auto;html=1;" edge="1" parent="1" source="0xATD7XNpNfVmDACj2di-1" target="0xATD7XNpNfVmDACj2di-74">
          <mxGeometry relative="1" as="geometry">
            <Array as="points">
              <mxPoint x="340" y="200" />
              <mxPoint x="340" y="200" />
            </Array>
          </mxGeometry>
        </mxCell>
        <mxCell id="0xATD7XNpNfVmDACj2di-80" style="edgeStyle=orthogonalEdgeStyle;rounded=0;orthogonalLoop=1;jettySize=auto;html=1;entryX=0.5;entryY=0;entryDx=0;entryDy=0;" edge="1" parent="1" source="0xATD7XNpNfVmDACj2di-1" target="0xATD7XNpNfVmDACj2di-76">
          <mxGeometry relative="1" as="geometry">
            <Array as="points">
              <mxPoint x="760" y="60" />
            </Array>
          </mxGeometry>
        </mxCell>
        <mxCell id="0xATD7XNpNfVmDACj2di-1" value="unstable_scheduleCallback(priorityLevel, callback, options)" style="rounded=0;whiteSpace=wrap;html=1;align=left;verticalAlign=top;" vertex="1" parent="1">
          <mxGeometry x="-280" y="40" width="560" height="840" as="geometry" />
        </mxCell>
        <mxCell id="0xATD7XNpNfVmDACj2di-3" value="currentTime = performance.now()" style="rounded=0;whiteSpace=wrap;html=1;verticalAlign=middle;align=left;" vertex="1" parent="1">
          <mxGeometry x="-240" y="80" width="480" height="40" as="geometry" />
        </mxCell>
        <mxCell id="0xATD7XNpNfVmDACj2di-4" value="startTime = currentTime + delay" style="rounded=0;whiteSpace=wrap;html=1;verticalAlign=middle;align=left;" vertex="1" parent="1">
          <mxGeometry x="-240" y="140" width="480" height="40" as="geometry" />
        </mxCell>
        <mxCell id="0xATD7XNpNfVmDACj2di-62" style="edgeStyle=orthogonalEdgeStyle;rounded=0;orthogonalLoop=1;jettySize=auto;html=1;" edge="1" parent="1" source="0xATD7XNpNfVmDACj2di-5" target="0xATD7XNpNfVmDACj2di-7">
          <mxGeometry relative="1" as="geometry" />
        </mxCell>
        <mxCell id="0xATD7XNpNfVmDACj2di-5" value="expirationTime = startTime + timeout" style="rounded=0;whiteSpace=wrap;html=1;verticalAlign=middle;align=left;" vertex="1" parent="1">
          <mxGeometry x="-240" y="200" width="480" height="40" as="geometry" />
        </mxCell>
        <mxCell id="0xATD7XNpNfVmDACj2di-10" style="edgeStyle=orthogonalEdgeStyle;rounded=0;orthogonalLoop=1;jettySize=auto;html=1;" edge="1" parent="1" source="0xATD7XNpNfVmDACj2di-7" target="0xATD7XNpNfVmDACj2di-9">
          <mxGeometry relative="1" as="geometry">
            <Array as="points">
              <mxPoint x="-130" y="522" />
            </Array>
          </mxGeometry>
        </mxCell>
        <mxCell id="0xATD7XNpNfVmDACj2di-29" value="NO" style="edgeLabel;html=1;align=center;verticalAlign=middle;resizable=0;points=[];" vertex="1" connectable="0" parent="0xATD7XNpNfVmDACj2di-10">
          <mxGeometry x="-0.0333" relative="1" as="geometry">
            <mxPoint y="12" as="offset" />
          </mxGeometry>
        </mxCell>
        <mxCell id="0xATD7XNpNfVmDACj2di-25" style="edgeStyle=orthogonalEdgeStyle;rounded=0;orthogonalLoop=1;jettySize=auto;html=1;entryX=0.5;entryY=0;entryDx=0;entryDy=0;" edge="1" parent="1" source="0xATD7XNpNfVmDACj2di-7" target="0xATD7XNpNfVmDACj2di-21">
          <mxGeometry relative="1" as="geometry">
            <Array as="points">
              <mxPoint x="130" y="522" />
            </Array>
          </mxGeometry>
        </mxCell>
        <mxCell id="0xATD7XNpNfVmDACj2di-27" value="YES" style="edgeLabel;html=1;align=center;verticalAlign=middle;resizable=0;points=[];" vertex="1" connectable="0" parent="0xATD7XNpNfVmDACj2di-25">
          <mxGeometry x="0.1" y="-4" relative="1" as="geometry">
            <mxPoint y="4" as="offset" />
          </mxGeometry>
        </mxCell>
        <mxCell id="0xATD7XNpNfVmDACj2di-7" value="startTime &amp;gt; currentTime" style="rhombus;whiteSpace=wrap;html=1;align=center;verticalAlign=middle;" vertex="1" parent="1">
          <mxGeometry x="-90" y="492" width="180" height="60" as="geometry" />
        </mxCell>
        <mxCell id="0xATD7XNpNfVmDACj2di-9" value="task" style="rounded=0;whiteSpace=wrap;html=1;align=left;verticalAlign=top;" vertex="1" parent="1">
          <mxGeometry x="-240" y="602" width="220" height="218" as="geometry" />
        </mxCell>
        <mxCell id="0xATD7XNpNfVmDACj2di-16" value="task.sortIndex = expirationTime" style="rounded=0;whiteSpace=wrap;html=1;align=left;verticalAlign=middle;" vertex="1" parent="1">
          <mxGeometry x="-220" y="642" width="180" height="38" as="geometry" />
        </mxCell>
        <mxCell id="0xATD7XNpNfVmDACj2di-17" value="push(taskQueue, task)" style="rounded=0;whiteSpace=wrap;html=1;align=left;verticalAlign=middle;" vertex="1" parent="1">
          <mxGeometry x="-220" y="702" width="180" height="38" as="geometry" />
        </mxCell>
        <mxCell id="0xATD7XNpNfVmDACj2di-18" value="requestHostCallback(flushWork)" style="rounded=0;whiteSpace=wrap;html=1;align=left;verticalAlign=middle;" vertex="1" parent="1">
          <mxGeometry x="-220" y="762" width="180" height="38" as="geometry" />
        </mxCell>
        <mxCell id="0xATD7XNpNfVmDACj2di-21" value="timer" style="rounded=0;whiteSpace=wrap;html=1;align=left;verticalAlign=top;" vertex="1" parent="1">
          <mxGeometry x="20" y="602" width="220" height="258" as="geometry" />
        </mxCell>
        <mxCell id="0xATD7XNpNfVmDACj2di-22" value="task.sortIndex = startTime" style="rounded=0;whiteSpace=wrap;html=1;align=left;verticalAlign=middle;" vertex="1" parent="1">
          <mxGeometry x="40" y="642" width="180" height="38" as="geometry" />
        </mxCell>
        <mxCell id="0xATD7XNpNfVmDACj2di-23" value="push(timerQueue, task)" style="rounded=0;whiteSpace=wrap;html=1;align=left;verticalAlign=middle;" vertex="1" parent="1">
          <mxGeometry x="40" y="700" width="180" height="40" as="geometry" />
        </mxCell>
        <mxCell id="0xATD7XNpNfVmDACj2di-24" value="requestHostTimeout(&lt;br&gt;&lt;span style=&quot;white-space: pre&quot;&gt;	&lt;/span&gt;handleTimeout,&lt;br&gt;&lt;span style=&quot;white-space: pre&quot;&gt;	&lt;/span&gt;startTime - currentTime&lt;br&gt;)" style="rounded=0;whiteSpace=wrap;html=1;align=left;verticalAlign=middle;" vertex="1" parent="1">
          <mxGeometry x="40" y="762" width="180" height="78" as="geometry" />
        </mxCell>
        <mxCell id="0xATD7XNpNfVmDACj2di-32" value="task" style="swimlane;fontStyle=0;childLayout=stackLayout;horizontal=1;startSize=26;horizontalStack=0;resizeParent=1;resizeParentMax=0;resizeLast=0;collapsible=1;marginBottom=0;align=left;verticalAlign=top;swimlaneFillColor=none;" vertex="1" parent="1">
          <mxGeometry x="-230" y="280" width="150" height="182" as="geometry">
            <mxRectangle x="100" y="208" width="50" height="26" as="alternateBounds" />
          </mxGeometry>
        </mxCell>
        <mxCell id="0xATD7XNpNfVmDACj2di-33" value="id: taskIdCounter" style="text;strokeColor=none;fillColor=none;align=left;verticalAlign=top;spacingLeft=4;spacingRight=4;overflow=hidden;rotatable=0;points=[[0,0.5],[1,0.5]];portConstraint=eastwest;" vertex="1" parent="0xATD7XNpNfVmDACj2di-32">
          <mxGeometry y="26" width="150" height="26" as="geometry" />
        </mxCell>
        <mxCell id="0xATD7XNpNfVmDACj2di-34" value="callback" style="text;strokeColor=none;fillColor=none;align=left;verticalAlign=top;spacingLeft=4;spacingRight=4;overflow=hidden;rotatable=0;points=[[0,0.5],[1,0.5]];portConstraint=eastwest;" vertex="1" parent="0xATD7XNpNfVmDACj2di-32">
          <mxGeometry y="52" width="150" height="26" as="geometry" />
        </mxCell>
        <mxCell id="0xATD7XNpNfVmDACj2di-35" value="priorityLevel" style="text;strokeColor=none;fillColor=none;align=left;verticalAlign=top;spacingLeft=4;spacingRight=4;overflow=hidden;rotatable=0;points=[[0,0.5],[1,0.5]];portConstraint=eastwest;" vertex="1" parent="0xATD7XNpNfVmDACj2di-32">
          <mxGeometry y="78" width="150" height="26" as="geometry" />
        </mxCell>
        <mxCell id="0xATD7XNpNfVmDACj2di-59" value="startTime" style="text;strokeColor=none;fillColor=none;align=left;verticalAlign=top;spacingLeft=4;spacingRight=4;overflow=hidden;rotatable=0;points=[[0,0.5],[1,0.5]];portConstraint=eastwest;" vertex="1" parent="0xATD7XNpNfVmDACj2di-32">
          <mxGeometry y="104" width="150" height="26" as="geometry" />
        </mxCell>
        <mxCell id="0xATD7XNpNfVmDACj2di-60" value="expirationTime" style="text;strokeColor=none;fillColor=none;align=left;verticalAlign=top;spacingLeft=4;spacingRight=4;overflow=hidden;rotatable=0;points=[[0,0.5],[1,0.5]];portConstraint=eastwest;" vertex="1" parent="0xATD7XNpNfVmDACj2di-32">
          <mxGeometry y="130" width="150" height="26" as="geometry" />
        </mxCell>
        <mxCell id="0xATD7XNpNfVmDACj2di-61" value="sortIndex: -1" style="text;strokeColor=none;fillColor=none;align=left;verticalAlign=top;spacingLeft=4;spacingRight=4;overflow=hidden;rotatable=0;points=[[0,0.5],[1,0.5]];portConstraint=eastwest;" vertex="1" parent="0xATD7XNpNfVmDACj2di-32">
          <mxGeometry y="156" width="150" height="26" as="geometry" />
        </mxCell>
        <mxCell id="0xATD7XNpNfVmDACj2di-63" value="MessageChannel" style="rounded=0;whiteSpace=wrap;html=1;shadow=0;glass=0;sketch=0;gradientColor=none;align=left;verticalAlign=top;" vertex="1" parent="1">
          <mxGeometry x="360" y="340" width="520" height="280" as="geometry" />
        </mxCell>
        <mxCell id="0xATD7XNpNfVmDACj2di-64" value="port2" style="rounded=0;whiteSpace=wrap;html=1;shadow=0;glass=0;sketch=0;gradientColor=none;align=left;verticalAlign=top;" vertex="1" parent="1">
          <mxGeometry x="400" y="380" width="160" height="200" as="geometry" />
        </mxCell>
        <mxCell id="0xATD7XNpNfVmDACj2di-65" value="onmessage" style="rounded=0;whiteSpace=wrap;html=1;shadow=0;glass=0;sketch=0;gradientColor=none;align=left;verticalAlign=middle;" vertex="1" parent="1">
          <mxGeometry x="420" y="420" width="120" height="40" as="geometry" />
        </mxCell>
        <mxCell id="0xATD7XNpNfVmDACj2di-68" value="postMessage" style="rounded=0;whiteSpace=wrap;html=1;shadow=0;glass=0;sketch=0;gradientColor=none;align=left;verticalAlign=middle;" vertex="1" parent="1">
          <mxGeometry x="420" y="500" width="120" height="40" as="geometry" />
        </mxCell>
        <mxCell id="0xATD7XNpNfVmDACj2di-69" value="port1" style="rounded=0;whiteSpace=wrap;html=1;shadow=0;glass=0;sketch=0;gradientColor=none;align=left;verticalAlign=top;" vertex="1" parent="1">
          <mxGeometry x="680" y="380" width="160" height="200" as="geometry" />
        </mxCell>
        <mxCell id="0xATD7XNpNfVmDACj2di-70" value="onmessage" style="rounded=0;whiteSpace=wrap;html=1;shadow=0;glass=0;sketch=0;gradientColor=none;align=left;verticalAlign=middle;" vertex="1" parent="1">
          <mxGeometry x="700" y="500" width="120" height="40" as="geometry" />
        </mxCell>
        <mxCell id="0xATD7XNpNfVmDACj2di-72" style="edgeStyle=orthogonalEdgeStyle;rounded=0;orthogonalLoop=1;jettySize=auto;html=1;entryX=1;entryY=0.5;entryDx=0;entryDy=0;" edge="1" parent="1" source="0xATD7XNpNfVmDACj2di-71" target="0xATD7XNpNfVmDACj2di-65">
          <mxGeometry relative="1" as="geometry" />
        </mxCell>
        <mxCell id="0xATD7XNpNfVmDACj2di-71" value="postMessage" style="rounded=0;whiteSpace=wrap;html=1;shadow=0;glass=0;sketch=0;gradientColor=none;align=left;verticalAlign=middle;" vertex="1" parent="1">
          <mxGeometry x="700" y="420" width="120" height="40" as="geometry" />
        </mxCell>
        <mxCell id="0xATD7XNpNfVmDACj2di-73" style="edgeStyle=orthogonalEdgeStyle;rounded=0;orthogonalLoop=1;jettySize=auto;html=1;" edge="1" parent="1" source="0xATD7XNpNfVmDACj2di-68" target="0xATD7XNpNfVmDACj2di-70">
          <mxGeometry relative="1" as="geometry" />
        </mxCell>
        <mxCell id="0xATD7XNpNfVmDACj2di-74" value="requestHostCallback(callback)" style="rounded=0;whiteSpace=wrap;html=1;shadow=0;glass=0;sketch=0;gradientColor=none;align=left;verticalAlign=top;" vertex="1" parent="1">
          <mxGeometry x="360" y="100" width="240" height="160" as="geometry" />
        </mxCell>
        <mxCell id="0xATD7XNpNfVmDACj2di-75" value="port2.postMessage(null)" style="rounded=0;whiteSpace=wrap;html=1;shadow=0;glass=0;sketch=0;gradientColor=none;align=left;verticalAlign=middle;" vertex="1" parent="1">
          <mxGeometry x="380" y="200" width="200" height="40" as="geometry" />
        </mxCell>
        <mxCell id="0xATD7XNpNfVmDACj2di-76" value="requestHostTimeout(callback, ms)" style="rounded=0;whiteSpace=wrap;html=1;shadow=0;glass=0;sketch=0;gradientColor=none;align=left;verticalAlign=top;" vertex="1" parent="1">
          <mxGeometry x="640" y="120" width="240" height="120" as="geometry" />
        </mxCell>
        <mxCell id="0xATD7XNpNfVmDACj2di-77" value="setTimeout(() =&amp;gt; {&lt;br&gt;&lt;span style=&quot;white-space: pre&quot;&gt;	&lt;/span&gt;callback(getCurrentTime());&lt;br&gt;}, ms);" style="rounded=0;whiteSpace=wrap;html=1;shadow=0;glass=0;sketch=0;gradientColor=none;align=left;verticalAlign=middle;" vertex="1" parent="1">
          <mxGeometry x="660" y="160" width="200" height="60" as="geometry" />
        </mxCell>
        <mxCell id="0xATD7XNpNfVmDACj2di-78" value="scheduledHostCallback = callback" style="rounded=0;whiteSpace=wrap;html=1;shadow=0;glass=0;sketch=0;gradientColor=none;align=left;verticalAlign=middle;" vertex="1" parent="1">
          <mxGeometry x="380" y="140" width="200" height="40" as="geometry" />
        </mxCell>
      </root>
    </mxGraphModel>
  </diagram>
</mxfile>
